<?xml version="1.0" encoding="UTF-8"?>
<svg width="300" height="300" viewBox="0 0 300 400" xmlns="http://www.w3.org/2000/svg" xmlns:xlink="http://www.w3.org/1999/xlink">
 <defs>
  <linearGradient id="a">
   <stop offset="0"/>
   <stop stop-opacity="0" offset="1"/>
  </linearGradient>
  <linearGradient id="e">
   <stop stop-color="#15414b" offset="0"/>
   <stop offset="1"/>
  </linearGradient>
  <linearGradient id="b">
   <stop stop-color="#5d71a3" offset="0"/>
   <stop stop-color="#5d71a3" stop-opacity="0" offset="1"/>
  </linearGradient>
  <linearGradient id="c">
   <stop stop-color="#0b2822" offset="0"/>
   <stop offset="1"/>
  </linearGradient>
  <linearGradient id="d">
   <stop stop-color="#a00" offset="0"/>
   <stop stop-color="#d03031" offset="1"/>
  </linearGradient>
  <linearGradient id="f">
   <stop stop-color="#8a0" stop-opacity=".57286" offset="0"/>
   <stop stop-color="#8a0" stop-opacity="0" offset=".5"/>
   <stop stop-color="#8a0" stop-opacity=".56784" offset="1"/>
  </linearGradient>
  <linearGradient id="an" x1="788.01" x2="869.54" y1="246.85" y2="694.41" gradientUnits="userSpaceOnUse">
   <stop stop-color="#f6e136" offset="0"/>
   <stop stop-color="#f6e136" stop-opacity="0" offset="1"/>
  </linearGradient>
  <linearGradient id="am" x1="23.93" x2="113.58" y1="795.13" y2="885.49" gradientUnits="userSpaceOnUse">
   <stop stop-color="#8a0" stop-opacity=".93467" offset="0"/>
   <stop stop-color="#8a0" stop-opacity=".36181" offset=".5"/>
   <stop stop-color="#8a0" stop-opacity=".8995" offset="1"/>
  </linearGradient>
  <linearGradient id="aj" x1="349.47" x2="358.07" y1="203.2" y2="50.968" gradientUnits="userSpaceOnUse">
   <stop stop-color="#fc0" offset="0"/>
   <stop stop-color="#ff7f2a" offset="1"/>
  </linearGradient>
  <linearGradient id="ac" x1="555.39" x2="720.1" y1="211.25" y2="206.25" gradientUnits="userSpaceOnUse">
   <stop stop-color="#dbe3de" offset="0"/>
   <stop stop-color="#dbe3de" stop-opacity="0" offset="1"/>
  </linearGradient>
  <linearGradient id="ab" x1="785.45" x2="331.83" y1="296.49" y2="456.88" gradientUnits="userSpaceOnUse">
   <stop offset="0"/>
   <stop stop-color="#fff" offset="1"/>
  </linearGradient>
  <linearGradient id="z" x1="799.07" x2="848.73" gradientTransform="matrix(.64627 .0402 -.03537 .73451 347.87 264.16)" gradientUnits="userSpaceOnUse">
   <stop stop-color="#6576a1" offset="0"/>
   <stop stop-color="#333" offset="1"/>
  </linearGradient>
  <linearGradient id="y" x1="788.15" x2="753.43" y1="1015.9" y2="1112.8" gradientUnits="userSpaceOnUse">
   <stop stop-color="#803300" offset="0"/>
   <stop stop-color="#520" offset="1"/>
  </linearGradient>
  <linearGradient id="w" x1="845.86" x2="791.65" y1="570.28" y2="932.27" gradientUnits="userSpaceOnUse">
   <stop stop-color="#164450" offset="0"/>
   <stop stop-color="#164450" stop-opacity="0" offset="1"/>
  </linearGradient>
  <linearGradient id="v" x1="656.36" x2="704.58" y1="943.23" y2="955.41" gradientUnits="userSpaceOnUse">
   <stop stop-color="#4d6ab3" offset="0"/>
   <stop stop-color="#4d6ab3" stop-opacity="0" offset="1"/>
  </linearGradient>
  <linearGradient id="u" x1="725.74" x2="753.24" y1="957.27" y2="963.76" gradientUnits="userSpaceOnUse">
   <stop stop-color="#5a70a6" offset="0"/>
   <stop stop-color="#788cb9" stop-opacity="0" offset="1"/>
  </linearGradient>
  <linearGradient id="r" x1="843.2" x2="874.9" y1="1002.1" y2="1012" gradientTransform="matrix(.82949 .0454 -.0454 .82949 202.27 161.65)" gradientUnits="userSpaceOnUse">
   <stop stop-color="#5e71a2" offset="0"/>
   <stop stop-color="#8798bb" stop-opacity="0" offset="1"/>
  </linearGradient>
  <linearGradient id="q" x1="830.44" x2="884.23" gradientTransform="matrix(.82949 .0454 -.0454 .82949 202.27 161.65)" gradientUnits="userSpaceOnUse">
   <stop stop-color="#6576a1" offset="0"/>
   <stop stop-color="#6576a1" stop-opacity="0" offset="1"/>
  </linearGradient>
  <linearGradient id="p" x1="879.84" x2="903.73" y1="1011.5" y2="1016.9" gradientTransform="matrix(.82949 .0454 -.0454 .82949 197.78 162.68)" gradientUnits="userSpaceOnUse">
   <stop stop-color="#5c70a4" offset="0"/>
   <stop stop-color="#5c70a4" stop-opacity="0" offset="1"/>
  </linearGradient>
  <linearGradient id="ao" x1="1002.1" x2="1195.3" y1="779.48" y2="823.02" gradientUnits="userSpaceOnUse" xlink:href="#c"/>
  <linearGradient id="al" x1="62.819" x2="792.69" gradientUnits="userSpaceOnUse" xlink:href="#f"/>
  <linearGradient id="ak" x1="48.069" x2="194.73" y1="330.49" y2="228.49" gradientUnits="userSpaceOnUse" xlink:href="#d"/>
  <linearGradient id="ai" x1="485.14" x2="517.34" y1="270.61" y2="190.95" gradientUnits="userSpaceOnUse" xlink:href="#d"/>
  <linearGradient id="ah" x1="165.01" x2="747.41" y1="440.24" y2="305.24" gradientUnits="userSpaceOnUse" xlink:href="#f"/>
  <linearGradient id="ag" x1="91.413" x2="168.48" y1="500.49" y2="471.49" gradientUnits="userSpaceOnUse" xlink:href="#d"/>
  <linearGradient id="af" x1="1010.1" x2="1227.3" y1="365.28" y2="1288.4" gradientTransform="matrix(.80723 0 0 .88361 190.34 58.922)" gradientUnits="userSpaceOnUse" xlink:href="#e"/>
  <linearGradient id="ae" x1="981.18" x2="1040.6" y1="754.15" y2="770.3" gradientUnits="userSpaceOnUse" xlink:href="#a"/>
  <linearGradient id="ad" x1="684.43" x2="1647.2" y1="760.69" y2="-27.267" gradientUnits="userSpaceOnUse" xlink:href="#c"/>
  <linearGradient id="aa" x1="613.41" x2="1078.5" y1="573.52" y2="1563.8" gradientUnits="userSpaceOnUse" xlink:href="#c"/>
  <linearGradient id="x" x1="1864.6" x2="434.8" y1="1461.6" y2="981.49" gradientUnits="userSpaceOnUse" xlink:href="#a"/>
  <linearGradient id="t" x1="680.88" x2="699.37" y1="985.74" y2="992.08" gradientUnits="userSpaceOnUse" xlink:href="#b"/>
  <linearGradient id="s" x1="726.66" x2="744.16" y1="994.66" y2="999.66" gradientUnits="userSpaceOnUse" xlink:href="#b"/>
  <linearGradient id="o" x1="841.06" x2="858.53" y1="1035.3" y2="1040.3" gradientTransform="matrix(.82949 .0454 -.0454 .82949 202.27 161.65)" gradientUnits="userSpaceOnUse" xlink:href="#b"/>
  <linearGradient id="n" x1="879.75" x2="897.41" y1="1044.6" y2="1050.6" gradientTransform="matrix(.82949 .0454 -.0454 .82949 202.27 161.65)" gradientUnits="userSpaceOnUse" xlink:href="#b"/>
  <linearGradient id="m" x1="613.41" x2="924.64" y1="573.52" y2="1714.9" gradientTransform="matrix(.3311 0 0 .36307 381.5 491.42)" gradientUnits="userSpaceOnUse" xlink:href="#e"/>
  <linearGradient id="l" x1="391.42" x2="404.44" y1="1035" y2="920.1" gradientUnits="userSpaceOnUse" xlink:href="#a"/>
  <radialGradient id="k" cx="90.559" cy="861.38" r="83.962" gradientUnits="userSpaceOnUse">
   <stop stop-color="#808080" offset="0"/>
   <stop stop-color="#fff" offset="1"/>
  </radialGradient>
  <radialGradient id="j" cx="86.375" cy="874.97" r="83.962" gradientTransform="matrix(.42491 0 0 .46915 39.619 443.46)" gradientUnits="userSpaceOnUse">
   <stop stop-color="#fff" offset="0"/>
   <stop offset="1"/>
  </radialGradient>
  <radialGradient id="i" cx="750.04" cy="1265.6" r="170.76" gradientTransform="matrix(.88545 .17316 -.14722 .75283 270.23 149.57)" gradientUnits="userSpaceOnUse">
   <stop stop-color="#b50d0e" offset="0"/>
   <stop stop-color="#0b2822" offset="1"/>
  </radialGradient>
  <radialGradient id="h" cx="696.8" cy="965.49" r="45.407" gradientTransform="matrix(1.2863 1.2604e-7 -1.0262e-7 1.0473 -203.06 -44.796)" gradientUnits="userSpaceOnUse" xlink:href="#a"/>
  <radialGradient id="g" cx="883.67" cy="1042.1" r="46.685" gradientTransform="matrix(1.4927 0 0 1.3615 -435.36 -376.72)" gradientUnits="userSpaceOnUse" xlink:href="#a"/>
 </defs>
 <g transform="matrix(.25456 0 0 .25456 -6.5474 -13.735)">
  <g transform="matrix(.98377 .17941 -.17941 .98377 -993.88 -277)">
   <path d="m1940.5 1500 10.209 19.951s5.7752-0.8897 8.5077 0c4.4649 1.4539 7.3561 7.4055 11.911 8.4054 3.9606 0.8696 7.9034-2.9127 11.911-2.42 3.0377 0.3734 5.4604 3.7477 8.5078 3.9901 4.6663 0.3714 9.4421-1.5072 13.612-3.9901 3.9498-2.3518 5.9044-8.7508 10.209-9.9756 5.0817-1.4457 15.314 3.9902 15.314 3.9902l6.9597-25.936 4.9511-0.9976 6.4437-23.194 4.6164-2.7418-0.1813-28.787 5.2859-2.1368c-12.378-98.323-18.664-197.34-26.374-296.27l-79.122-4.9878-29.777 279.31 5.0115 2.2076-1.6084 16.746 5.072 1.4226-4.2212 31.496 4.8907 1.1392-4.8907 25.794z" fill="#0b2822"/>
   <path d="m1985 1136.9c2.5953 131.01 1.5835 251.01 5.0625 382 1.982-0.157-0.047-0.6718 1.875-1.4063-2.8589-130.35 2.9067-249.72 1.25-380.09z" fill="#164450"/>
   <path d="m1997.3 1434.8 19.914 24.22 19.914 26.911-18.838-34.446z" fill="#164450"/>
   <path d="m1979.2 1434.8-19.914 24.22-19.914 26.911 18.838-34.446z" fill="#164450"/>
   <path d="m1979.2 1389.8-19.914 24.22-19.914 26.911 18.838-34.446z" fill="#164450"/>
   <path d="m2000.3 1390.8 19.914 24.22 19.914 26.911-18.838-34.446z" fill="#164450"/>
   <path d="m1979.2 1341.8-19.914 24.22-19.914 26.911 18.838-34.446z" fill="#164450"/>
   <path d="m2000.3 1346.8 19.914 24.22 19.914 26.911-18.838-34.446z" fill="#164450"/>
   <path d="m2000.3 1295.8 19.914 24.22 19.914 26.911-18.838-34.446z" fill="#164450"/>
   <path d="m1979.2 1296.8-19.914 24.22-19.914 26.911 18.838-34.446z" fill="#164450"/>
   <path d="m2000.3 1254.8 19.914 24.22 19.914 26.911-18.838-34.446z" fill="#164450"/>
   <path d="m1979.2 1255.8-19.914 24.22-19.914 26.911 18.838-34.446z" fill="#164450"/>
   <path d="m1998 1212.8 17.858 21.719 17.858 24.133-16.893-30.89z" fill="#164450"/>
   <path d="m1979 1213.7-17.858 21.719-17.858 24.133 16.893-30.89z" fill="#164450"/>
   <path d="m1998.8 1176.8 16.795 20.426 16.795 22.696-15.887-29.051z" fill="#164450"/>
   <path d="m1980.9 1177.6-16.795 20.426-16.795 22.696 15.887-29.051z" fill="#164450"/>
   <path d="m1842 1401.3 7.8473 18.226s5.8248 0.019 8.4316 1.1353c4.2595 1.8247 6.4475 7.241 10.848 8.694 3.8262 1.2635 8.1642-1.4073 12.08-0.4561 2.968 0.721 4.985 3.8964 7.9776 4.508 4.5823 0.9366 9.5291-0.014 13.945-1.5561 4.1822-1.4607 6.8476-6.6086 11.253-7.0693 5.2007-0.5439 14.723 5.4162 14.723 5.4162l9.8492-20.993 5.0204-0.1825 9.0259-18.745 4.8871-1.7014 3.0967-24.356 5.4818-1.1008c-1.0768-84.758 3.9618-169.29 7.5811-253.94l-77.847-14.774-61.3 232.11 4.7154 2.5347-3.4999 13.94 4.8647 1.8793-7.7681 26.059 4.7173 1.6155-7.7827 21.15z" opacity=".5"/>
   <path d="m1837 1400.3 7.8473 18.226s5.8248 0.019 8.4316 1.1353c4.2595 1.8247 6.4475 7.241 10.848 8.694 3.8262 1.2635 8.1642-1.4073 12.08-0.4561 2.968 0.721 4.985 3.8964 7.9776 4.508 4.5823 0.9366 9.5291-0.014 13.945-1.5561 4.1822-1.4607 6.8476-6.6086 11.253-7.0693 5.2007-0.5439 14.723 5.4162 14.723 5.4162l9.8492-20.993 5.0204-0.1825 9.0259-18.745 4.8871-1.7014 3.0967-24.356 5.4818-1.1008c-1.0768-84.758 3.9618-169.29 7.5811-253.94l-77.847-14.774-61.3 232.11 4.7154 2.5347-3.4999 13.94 4.8647 1.8793-7.7681 26.059 4.7173 1.6155-7.7827 21.15z" fill="#0b2822"/>
   <g transform="matrix(.84131 .17691 -.17691 .84131 466.97 -205.48)" fill="#164450">
    <path d="m1985 1136.9c2.5953 131.01 1.5835 251.01 5.0625 382 1.982-0.157-0.047-0.6718 1.875-1.4063-2.8589-130.35 2.9067-249.72 1.25-380.09z"/>
    <path d="m1997.3 1434.8 19.914 24.22 19.914 26.911-18.838-34.446z"/>
    <path d="m1979.2 1434.8-19.914 24.22-19.914 26.911 18.838-34.446z"/>
    <path d="m1979.2 1389.8-19.914 24.22-19.914 26.911 18.838-34.446z"/>
    <path d="m2000.3 1390.8 19.914 24.22 19.914 26.911-18.838-34.446z"/>
    <path d="m1979.2 1341.8-19.914 24.22-19.914 26.911 18.838-34.446z"/>
    <path d="m2000.3 1346.8 19.914 24.22 19.914 26.911-18.838-34.446z"/>
    <path d="m2000.3 1295.8 19.914 24.22 19.914 26.911-18.838-34.446z"/>
    <path d="m1979.2 1296.8-19.914 24.22-19.914 26.911 18.838-34.446z"/>
    <path d="m2000.3 1254.8 19.914 24.22 19.914 26.911-18.838-34.446z"/>
    <path d="m1979.2 1255.8-19.914 24.22-19.914 26.911 18.838-34.446z"/>
    <path d="m1998 1212.8 17.858 21.719 17.858 24.133-16.893-30.89z"/>
    <path d="m1979 1213.7-17.858 21.719-17.858 24.133 16.893-30.89z"/>
    <path d="m1998.8 1176.8 16.795 20.426 16.795 22.696-15.887-29.051z"/>
    <path d="m1980.9 1177.6-16.795 20.426-16.795 22.696 15.887-29.051z"/>
   </g>
   <path d="m2042.3 1435.8 12.704 15.244s5.5899-1.6376 8.4066-1.3079c4.6024 0.5389 8.2396 5.11 12.871 5.2525 4.0275 0.1239 7.4276-3.6696 11.452-3.8705 3.0505-0.1522 5.8868 2.3189 8.9298 2.0548 4.6595-0.4044 9.1322-2.7217 12.927-5.4552 3.5945-2.589 4.687-8.2821 8.7801-9.9761 4.8318-1.9995 15.655 1.0085 15.655 1.0085l3.4766-22.927 4.7614-1.6018 3.3262-20.537 4.202-3.0202-3.9533-24.232 4.9429-2.6134c-25.122-80.957-44.315-163.43-64.904-245.62l-78.835 7.9597 7.1969 239.96 5.2414 1.09 0.6062 14.359 5.1982 0.4192-0.042 27.192 4.982 0.2082-1.4508 22.49z" opacity=".5"/>
   <path d="m2046.3 1434.8 12.704 15.244s5.5899-1.6376 8.4066-1.3079c4.6024 0.5389 8.2396 5.11 12.871 5.2525 4.0275 0.1239 7.4276-3.6696 11.452-3.8705 3.0505-0.1522 5.8868 2.3189 8.9298 2.0548 4.6595-0.4044 9.1322-2.7217 12.927-5.4552 3.5945-2.589 4.687-8.2821 8.7801-9.9761 4.8318-1.9995 15.655 1.0085 15.655 1.0085l3.4766-22.927 4.7614-1.6018 3.3262-20.537 4.202-3.0202-3.9533-24.232 4.9429-2.6134c-25.122-80.957-44.315-163.43-64.904-245.62l-78.835 7.9597 7.1969 239.96 5.2414 1.09 0.6062 14.359 5.1982 0.4192-0.042 27.192 4.982 0.2082-1.4508 22.49z" fill="#0b2822"/>
   <g transform="matrix(-.84131 .17691 .17691 .84131 3512.3 -183.95)" fill="#164450">
    <path d="m1985 1136.9c2.5953 131.01 1.5835 251.01 5.0625 382 1.982-0.157-0.047-0.6718 1.875-1.4063-2.8589-130.35 2.9067-249.72 1.25-380.09z"/>
    <path d="m1997.3 1434.8 19.914 24.22 19.914 26.911-18.838-34.446z"/>
    <path d="m1979.2 1434.8-19.914 24.22-19.914 26.911 18.838-34.446z"/>
    <path d="m1979.2 1389.8-19.914 24.22-19.914 26.911 18.838-34.446z"/>
    <path d="m2000.3 1390.8 19.914 24.22 19.914 26.911-18.838-34.446z"/>
    <path d="m1979.2 1341.8-19.914 24.22-19.914 26.911 18.838-34.446z"/>
    <path d="m2000.3 1346.8 19.914 24.22 19.914 26.911-18.838-34.446z"/>
    <path d="m2000.3 1295.8 19.914 24.22 19.914 26.911-18.838-34.446z"/>
    <path d="m1979.2 1296.8-19.914 24.22-19.914 26.911 18.838-34.446z"/>
    <path d="m2000.3 1254.8 19.914 24.22 19.914 26.911-18.838-34.446z"/>
    <path d="m1979.2 1255.8-19.914 24.22-19.914 26.911 18.838-34.446z"/>
    <path d="m1998 1212.8 17.858 21.719 17.858 24.133-16.893-30.89z"/>
    <path d="m1979 1213.7-17.858 21.719-17.858 24.133 16.893-30.89z"/>
    <path d="m1998.8 1176.8 16.795 20.426 16.795 22.696-15.887-29.051z"/>
    <path d="m1980.9 1177.6-16.795 20.426-16.795 22.696 15.887-29.051z"/>
   </g>
  </g>
  <path d="m948.35 484.04s31.712-12.301 49.998-12.138c20.825 0.1853 44.24 5.3603 58.405 14.849 58.453 39.158 73.396 149.35 73.396 149.35l-8.8703-4.8674 15.046 91.509-8.8605-4.9267-4.0433 81.718-8.9605-4.9353-6.6596 97.893-8.9671-4.2924-15.185 65.76-9.9196-5.0784-10.826 66.84-8.5443-5.6028s-7.9716 82.898-38.062 118.43c-6.8338 8.0704-15.794 19.976-30.866 19.762s-28.653-19.834-36.242-31.716c-62.579-97.99-64.831-205.81-65.559-309.1-0.7697-109.18 64.72-323.46 64.72-323.46z" fill="url(#ao)"/>
  <path d="m48.075 347.58s14.196-113.49 99.402-172.77 165.04-72.314 253.24-80.469c89.447-8.2705 267.44 33.134 267.44 33.134s5.3463 25.415 6.8862 55.873-0.7267 65.959 12.048 86.131c8.5464 13.496 40.234 26.034 40.234 26.034s-262.91-53.234-394.24-39.334c-99.215 10.501-285.01 91.402-285.01 91.402z" fill="#f2e945"/>
  <path d="m91.409 511.43s194.18-62.201 293.92-82.202c75.602-15.16 229.57-28.401 229.57-28.401s44.774-22.185 69.818-50.884c13.748-15.755 36.684-50.885 36.684-50.885s-141.25 2.4869-210.64 14.2c-76.618 12.934-153.88 29.868-224.84 61.535-121.79 54.352-194.52 136.64-194.52 136.64z" fill="#f2e945"/>
  <path d="m700.91 136.91s13.682 22.6 15.219 51.781c1.1847 22.491 5.5752 46.956 18.75 65.438 12.834 18.004 54.344 38.062 54.344 38.062s-13.581 26.108-22.938 37.312c-14.381 17.22-31.486 32.466-50.156 44.906-20.588 13.718-66.969 31.969-66.969 31.969s19.357 13.478 24.344 39.562c4.5983 24.053 10.625 73.062 10.625 73.062 0.8996 26.401 6.9185 53.609 17.438 74.125 14.788 26.914 38.688 50.957 66.719 63.5 24.316 10.881 54.13 14.088 79.656 6.4687 35.282-10.531 67.242-36.862 87.188-67.812 19.187-29.774 22.456-67.999 24.781-103.34 1.1365-17.279-1.5181-19.675-3.4063-51.688s-18.976-103.72-50.708-169.14c-24.589-50.694-55.174-97.614-112.01-119.36-17.332-6.6323-37.438 6.8226-55.344 1.9688-13.229-3.5862-37.531-16.812-37.531-16.812z" fill="#ffe680"/>
  <path d="m699.41 137.76c2.2826 4.0242 13.34 24.762 14.719 50.938 1.1847 22.491 5.5751 46.956 18.75 65.438 12.834 18.004 54.344 38.062 54.344 38.062s-13.581 26.108-22.938 37.312c-14.381 17.22-31.486 32.466-50.156 44.906-10.446 6.9601-35.514 15.057-49.813 21.375 13.485 23.755 20.638 52.814 25.563 79.188 4.1886 33.877 4.2865 70.64 25.187 99.531 23.512 36.022 66.528 60.724 110.19 54.5 42.699-7.5945 79.52-38.985 98.687-77.25 12.708-30.547 15.358-64.357 15.625-97.094-3.0735-31.675-5.0457-63.645-14.156-94.344-16.174-59.215-38.44-118.22-75.594-167.66-3.2475-4.0915-6.7049-8.2971-10.312-12.5-13.607-11.627-29.276-21.348-47.719-28.406-17.332-6.6324-37.438 6.8226-55.344 1.9687-11.708-3.1739-31.156-13.42-35.687-15.844-0.4864-0.042-0.9193-0.08-1.3438-0.125z" fill="url(#an)"/>
  <path transform="matrix(.79487 0 0 .79487 723.79 -445.9)" d="m152.85 835.38c0 46.371-37.591 83.962-83.962 83.962s-83.962-37.591-83.962-83.962 37.591-83.962 83.962-83.962 83.962 37.591 83.962 83.962z" fill="url(#am)"/>
  <path transform="matrix(.46154 0 0 .46154 742.77 -161.45)" d="m152.85 835.38c0 46.371-37.591 83.962-83.962 83.962s-83.962-37.591-83.962-83.962 37.591-83.962 83.962-83.962 83.962 37.591 83.962 83.962z" fill="url(#k)"/>
  <path transform="matrix(.26923 0 0 .26923 766.17 9.348)" d="m152.85 835.38c0 46.371-37.591 83.962-83.962 83.962s-83.962-37.591-83.962-83.962 37.591-83.962 83.962-83.962 83.962 37.591 83.962 83.962z" fill="url(#j)"/>
  <path d="m349.6 114.79-180.41 90.406-25.875 104.31c60.616-22.556 137.31-47.79 189.78-53.344 120.15-12.717 348.01 30.318 386.34 37.812l3.75-0.2187c-8.7574-3.8397-29.406-13.722-36.094-24.281-12.774-20.172-10.523-55.667-12.062-86.125-1.0477-20.722-3.8109-38.893-5.5-48.531l-319.94-20.031z" fill="url(#al)"/>
  <path d="m296.73 109.41c-49.777 11.242-98.563 30.144-149.25 65.406-85.206 59.277-99.406 172.75-99.406 172.75s47.49-20.67 107.25-42.469c3.068-28.552 4.805-83.237 26.094-103.66 11.876-11.391 123.39-68.907 135.69-79.212 38.61-32.35-24.338-10.572-20.375-12.82z" fill="url(#ak)"/>
  <path d="m423.16 93.256c-7.9418 0.083-15.449 0.4476-22.438 1.0937-28.094 2.5977-55.346 5.6685-82.188 10.594l-0.4375 1.5625s-30.602 14.951-45.219 23.656c-45.317 26.988-93.893 51.11-131.31 88.281-22.961 22.809-53.137 74.512-61.906 89.938 12.086-20.387 67.228-101.77 204-154.53 56.356-21.742 118.28-30.485 178.69-30.125 61.794 0.3681 170.96 26.756 210.84 36.938-2.143-19.411-5.0312-33.188-5.0312-33.188s-151.29-35.2-245-34.219zm-344.53 216.94c-1.0102 1.7779-1.6562 2.9687-1.6562 2.9687s0.57863-1.0624 1.6562-2.9687z" fill="url(#aj)"/>
  <path d="m565.85 187.76c-28.881 0.1237-58.458 6.2474-86.594 11.969-47.927 9.7457-125.33 41.597-166.34 59.312 7.0328-1.219 13.8-2.1989 20.188-2.875 93.202-9.8644 250.85 13.788 334.94 28.406-1.2214-1.8731-2.2792-3.6987-3-5.2813-8.1804-17.961-2.6038-41.306-13.75-57.594-9.3631-13.682-24.966-23.723-40.906-28.281-14.46-4.135-29.403-5.721-44.531-5.6562z" fill="url(#ai)"/>
  <path d="m721.41 299.07s-141.27 2.474-210.66 14.188c-76.618 12.934-153.86 29.865-224.81 61.531-39.606 17.675-73.991 38.301-102.41 58.094l-18.531 34.531s162.8-52.658 246.62-68.531c67.669-12.814 163.08-14.866 205.53-21.312 24.356-3.6986 40.303-25.372 59.406-39.562 11.388-8.4595 28.06-22.288 41.125-33.344 2.2699-3.3992 3.7188-5.5937 3.7188-5.5937z" fill="url(#ah)"/>
  <path d="m185.48 431.54c-60.184 41.598-94.062 79.906-94.062 79.906s40.389-12.94 93.656-28.875c-2.3105-11.455-4.3183-24.948-3.4062-34.094 0.49407-4.9542 1.9296-10.818 3.8125-16.938z" fill="url(#ag)"/>
  <path d="m991.4 546.72s-12.718-56.995 4.8373-70.819c13.163-10.365 35.712 4.7364 47.146 13.121 47.184 34.6 59.247 131.97 59.247 131.97l-7.1603-4.3009 12.146 80.859-7.1524-4.3533-3.2639 72.207-7.2331-4.3609-5.3758 86.499-7.2385-3.7928-12.258 58.106-8.0074-4.4874-8.7391 59.061-6.8972-4.9507s-6.4348 73.249-30.725 104.65c-5.5164 7.1312-12.749 17.651-24.916 17.462s-23.13-17.526-29.255-28.025c-50.515-86.585-61.129-180.49-52.921-273.12 7.2124-81.389 87.766-225.72 87.766-225.72z" fill="url(#af)"/>
  <path d="m1031.3 477.25-23.125 3.4375-142.16 578.69 59.176 10.275s113.95-275.87 123.67-425.21c3.0769-47.28-13.719-121.28-17.563-167.19z" fill="url(#ae)"/>
  <path d="m684.04 121.35s37.611 1.5076 56.326 0c18.959-1.5272 37.367-7.6066 56.326-9.1339 5.3109-0.4278 15.984 0 15.984 0l-0.7612 8.3728s20.318-0.9497 31.208 0.7611 33.491 9.8951 33.491 9.8951v6.0892s20.181 14.743 26.64 21.312 12.94 16.745 12.94 16.745l-1.5224 3.8058 24.357 25.879 10.656 17.507-3.0446 6.0893 25.118 37.297-3.8058 8.3727 31.969 61.654-1.5223 4.567 17.507 30.446-3.8058 3.8058 15.223 31.208-3.0447 9.1339c-5.6661 54.176 21.409 117.36 17.574 176.29-9.7187 149.34-102.06 437.21-102.06 437.21l-133.96 6.0892-190.29-68.504 55.236-374.49 8.3727-121.79 8.895 49.475-3.8504 2.2834 4.8504 17.507-3.8057 3.0446 11.417 23.596-4.0892 3.0446 17.029 31.208-1.5669 2.2835s25.288 43.108 64.31 54.848c25.511 7.6748 53.97 9.1014 79.922 3 15.474-3.638 29.581-12.745 41.864-22.835 9.1872-7.5471 22.835-27.402 22.835-27.402l5.3281 1.5224 10.656-19.79 6.8504-22.835 6.1196-1.8388 7.5813-36.98 3.8058-35.013-4.567-1.5223 3.8058-50.998-8.6562 1.5224 0.2835-33.491-1.5223-23.596-8.1339 6.8505s-4.4114-24.928-7.0893-37.297c-2.0444-9.4425-6.8504-28.163-6.8504-28.163l-4.567 5.8505-10.656-38.58-3.0446 3.8057-24.357-60.893-3.8058 9.8951-13.701-39.58-4.5669 6.8504-29.685-45.67-0.7611 6.8504-23.596-15.223-11.417-7.6116-0.2388 7.1339s-22.511-5.5792-34.013-6.6562c-12.126-1.1353-24.889 3.7995-36.536 0.2388-10.289-3.1455-26.641-18.223-26.641-18.223z" fill="url(#ad)"/>
  <path d="m664.99 126.47s7.686 30 8.6879 45.363c1.2163 18.651-6.5474 37.567-3.3057 55.975 2.9826 16.936 9.1259 34.423 20.452 47.363 8.2681 9.4459 32.293 19.376 32.293 19.376s-12.09 15.873-18.299 23.682c-12.696 15.966-23.603 33.702-38.752 47.363-15.636 14.101-52.746 34.752-52.746 34.752s4.0278 10.116 8.6115 11.535c29.7 9.1948 61.985-13.532 88.268-30.14 33.891-21.416 83.962-86.115 83.962-86.115s-43.618-24.193-57.051-44.134c-16.447-24.415-22.636-55.624-23.834-85.039-0.6127-15.039-18.147-44.134-18.147-44.134s-9.6346-7.0277-15.07-6.4587c-6.1104 0.6397-15.07 10.612-15.07 10.612z" fill="#1a1a1a"/>
  <path d="m671.39 131.49s8.2109 29.148 9.1339 44.147c1.1543 18.757-8.46 37.807-4.5669 56.192 7.6569 36.158 44.147 54.937 44.147 54.937l44.434-1.5353s-63.265-28.957-58.992-114.61c1.1863-23.781-17.9-42.785-17.9-42.785s-5.911-2.6562-8.8731-2.0071c-3.029 0.6637-7.3838 5.6583-7.3838 5.6583z" fill="url(#ac)"/>
  <path d="m729.04 299.4 55.975-2.1529s-38.684 49.775-62.972 69.43c-20.81 16.841-69.43 40.366-69.43 40.366s-28.782 7.5323-30.678-2.1528c-1.8943-9.6761 23.301-4.0967 55.975-37.675 20.511-21.078 51.131-67.816 51.131-67.816z" fill="url(#ab)"/>
  <g transform="matrix(.50883 .17265 -.17265 .50883 884.14 1234)">
   <path d="m-493.21 250.46 7.8473 18.226s5.8248 0.019 8.4316 1.1353c4.2595 1.8247 6.4475 7.241 10.848 8.694 3.8262 1.2635 8.1642-1.4073 12.08-0.4561 2.968 0.721 4.985 3.8964 7.9776 4.508 4.5823 0.9366 9.5291-0.014 13.945-1.5561 4.1822-1.4607 6.8476-6.6086 11.253-7.0693 5.2007-0.5439 14.723 5.4162 14.723 5.4162l9.8492-20.993 5.0204-0.1825 9.0259-18.745 4.8871-1.7014 3.0967-24.356 5.4818-1.1008c-1.0768-84.758 3.9618-169.29 7.5811-253.94l-77.847-14.774-61.3 232.11 4.7154 2.5347-3.4999 13.94 4.8647 1.8793-7.7681 26.059 4.7173 1.6155-7.7827 21.15z" opacity=".5"/>
   <path d="m-498.21 249.46 7.8473 18.226s5.8248 0.019 8.4316 1.1353c4.2595 1.8247 6.4475 7.241 10.848 8.694 3.8262 1.2635 8.1642-1.4073 12.08-0.4561 2.968 0.721 4.985 3.8964 7.9776 4.508 4.5823 0.9366 9.5291-0.014 13.945-1.5561 4.1822-1.4607 6.8476-6.6086 11.253-7.0693 5.2007-0.5439 14.723 5.4162 14.723 5.4162l9.8492-20.993 5.0204-0.1825 9.0259-18.745 4.8871-1.7014 3.0967-24.356 5.4818-1.1008c-1.0768-84.758 3.9618-169.29 7.5811-253.94l-77.847-14.774-61.3 232.11 4.7154 2.5347-3.4999 13.94 4.8647 1.8793-7.7681 26.059 4.7173 1.6155-7.7827 21.15z" fill="#0b2822"/>
   <g transform="matrix(.84131 .17691 -.17691 .84131 -1868.3 -1356.3)" fill="#164450">
    <path d="m1985 1136.9c2.5953 131.01 1.5835 251.01 5.0625 382 1.982-0.157-0.047-0.6718 1.875-1.4063-2.8589-130.35 2.9067-249.72 1.25-380.09z"/>
    <path d="m1997.3 1434.8 19.914 24.22 19.914 26.911-18.838-34.446z"/>
    <path d="m1979.2 1434.8-19.914 24.22-19.914 26.911 18.838-34.446z"/>
    <path d="m1979.2 1389.8-19.914 24.22-19.914 26.911 18.838-34.446z"/>
    <path d="m2000.3 1390.8 19.914 24.22 19.914 26.911-18.838-34.446z"/>
    <path d="m1979.2 1341.8-19.914 24.22-19.914 26.911 18.838-34.446z"/>
    <path d="m2000.3 1346.8 19.914 24.22 19.914 26.911-18.838-34.446z"/>
    <path d="m2000.3 1295.8 19.914 24.22 19.914 26.911-18.838-34.446z"/>
    <path d="m1979.2 1296.8-19.914 24.22-19.914 26.911 18.838-34.446z"/>
    <path d="m2000.3 1254.8 19.914 24.22 19.914 26.911-18.838-34.446z"/>
    <path d="m1979.2 1255.8-19.914 24.22-19.914 26.911 18.838-34.446z"/>
    <path d="m1998 1212.8 17.858 21.719 17.858 24.133-16.893-30.89z"/>
    <path d="m1979 1213.7-17.858 21.719-17.858 24.133 16.893-30.89z"/>
    <path d="m1998.8 1176.8 16.795 20.426 16.795 22.696-15.887-29.051z"/>
    <path d="m1980.9 1177.6-16.795 20.426-16.795 22.696 15.887-29.051z"/>
   </g>
  </g>
  <g transform="matrix(.4848 0 0 .4848 991.95 1179.7)">
   <path d="m-292.96 284.95 12.704 15.244s5.5899-1.6376 8.4066-1.3079c4.6024 0.5389 8.2396 5.11 12.871 5.2525 4.0275 0.1239 7.4276-3.6696 11.452-3.8705 3.0505-0.1522 5.8868 2.3189 8.9298 2.0548 4.6595-0.4044 9.1322-2.7217 12.927-5.4552 3.5945-2.589 4.687-8.2821 8.7801-9.9761 4.8318-1.9995 15.655 1.0085 15.655 1.0085l3.4766-22.927 4.7614-1.6018 3.3262-20.537 4.202-3.0202-3.9533-24.232 4.9429-2.6134c-25.122-80.957-44.315-163.43-64.904-245.62l-78.835 7.9597 7.1969 239.96 5.2414 1.09 0.6062 14.359 5.1982 0.4192-0.042 27.192 4.982 0.2082-1.4508 22.49z" opacity=".5"/>
   <path d="m-288.96 283.95 12.704 15.244s5.5899-1.6376 8.4066-1.3079c4.6024 0.5389 8.2396 5.11 12.871 5.2525 4.0275 0.1239 7.4276-3.6696 11.452-3.8705 3.0505-0.1522 5.8868 2.3189 8.9298 2.0548 4.6595-0.4044 9.1322-2.7217 12.927-5.4552 3.5945-2.589 4.687-8.2821 8.7801-9.9761 4.8318-1.9995 15.655 1.0085 15.655 1.0085l3.4766-22.927 4.7614-1.6018 3.3262-20.537 4.202-3.0202-3.9533-24.232 4.9429-2.6134c-25.122-80.957-44.315-163.43-64.904-245.62l-78.835 7.9597 7.1969 239.96 5.2414 1.09 0.6062 14.359 5.1982 0.4192-0.042 27.192 4.982 0.2082-1.4508 22.49z" fill="#0b2822"/>
   <g transform="matrix(-.84131 .17691 .17691 .84131 1177.1 -1334.8)" fill="#164450">
    <path d="m1985 1136.9c2.5953 131.01 1.5835 251.01 5.0625 382 1.982-0.157-0.047-0.6718 1.875-1.4063-2.8589-130.35 2.9067-249.72 1.25-380.09z"/>
    <path d="m1997.3 1434.8 19.914 24.22 19.914 26.911-18.838-34.446z"/>
    <path d="m1979.2 1434.8-19.914 24.22-19.914 26.911 18.838-34.446z"/>
    <path d="m1979.2 1389.8-19.914 24.22-19.914 26.911 18.838-34.446z"/>
    <path d="m2000.3 1390.8 19.914 24.22 19.914 26.911-18.838-34.446z"/>
    <path d="m1979.2 1341.8-19.914 24.22-19.914 26.911 18.838-34.446z"/>
    <path d="m2000.3 1346.8 19.914 24.22 19.914 26.911-18.838-34.446z"/>
    <path d="m2000.3 1295.8 19.914 24.22 19.914 26.911-18.838-34.446z"/>
    <path d="m1979.2 1296.8-19.914 24.22-19.914 26.911 18.838-34.446z"/>
    <path d="m2000.3 1254.8 19.914 24.22 19.914 26.911-18.838-34.446z"/>
    <path d="m1979.2 1255.8-19.914 24.22-19.914 26.911 18.838-34.446z"/>
    <path d="m1998 1212.8 17.858 21.719 17.858 24.133-16.893-30.89z"/>
    <path d="m1979 1213.7-17.858 21.719-17.858 24.133 16.893-30.89z"/>
    <path d="m1998.8 1176.8 16.795 20.426 16.795 22.696-15.887-29.051z"/>
    <path d="m1980.9 1177.6-16.795 20.426-16.795 22.696 15.887-29.051z"/>
   </g>
  </g>
  <path d="m631.16 1123.1c8.863 19.973 19.628 40.54 28.531 56.906l3.4062 10.156 3.375-2.9687c0.7546 0.7466 1.5096 1.4925 2.2812 2.2187l2.9375 6.6563 2.3125-2c1.13 0.945 2.2726 1.882 3.4375 2.7812l2.3438 7.3125 13.969 2.9063c6.4642 3.1511 13.296 5.5381 20.344 7.4062l4.4375 2.5938 6.5625-0.125c12.674 2.4156 25.795 3.5839 38.625 4.5937l4.3125 1.4687 4.2188-0.8124 0.71875 0.062c8.5386 0.6903 17.389 1.5749 26.156 1.6876l14.656 2.2812 8.5625-4.5312c3.3914-0.8227 6.6961-1.8905 9.9062-3.3126 1.8396-0.8149 3.6702-1.7054 5.5-2.5937l7.7812-0.3437 0.84375-4.1876c1.8359-1.0451 3.6518-2.1122 5.4375-3.25l3.4062 0.4688 0.21875-2.875c1.7616-1.2178 3.5043-2.4898 5.1875-3.8125l0.21875 0.2187c2.6374-9.1312 2.1596-31.43 4.0339-37.47-47.879-9.3598-110.07-24.596-233.72-41.435z" opacity=".5"/>
  <path d="m623.31 941.5c-21.771 59.524-21.155 125.44 1.8438 178.62 8.863 19.973 19.977 40.271 34.531 56.906l3.4062 10.156 3.375-2.9687c0.7546 0.7466 1.5096 1.4925 2.2812 2.2187l2.9375 6.6563 2.3125-2c1.13 0.945 2.2726 1.882 3.4375 2.7812l2.3438 7.3125 13.969 2.9063c6.4642 3.1511 13.296 5.5381 20.344 7.4062l4.4375 2.5938 6.5625-0.125c12.674 2.4156 25.795 3.5839 38.625 4.5937l4.3125 1.4687 4.2188-0.8124 0.71875 0.062c8.5386 0.6903 17.389 1.5749 26.156 1.6876l14.656 2.2812 8.5625-4.5312c3.3914-0.8227 6.6961-1.8905 9.9062-3.3126 1.8396-0.8149 3.6702-1.7054 5.5-2.5937l7.7812-0.3437 0.84375-4.1876c1.8359-1.0451 3.6518-2.1122 5.4375-3.25l3.4062 0.4688 0.21875-2.875c1.7616-1.2178 3.5043-2.4898 5.1875-3.8125l3.2188 0.2187-1.2812-1.8124c10.688-8.8557 19.435-19.988 24-34.313 7.5425-23.667 38.53-96.081 53.281-133.22 5.1773-13.034 6.9375-23.594 6.9375-23.594z" fill="url(#i)"/>
  <path d="m682.79 514.14s-15.119-14.047-24.741-15.472c-11.601-1.7179-24.635 2.0926-33.957 9.2092-28.707 21.916-54.917 93.402-54.917 93.402l5.4019-3.8538-16.963 84.784 5.402-3.9102-5.402 77.132 5.4585-3.9102-5.4585 92.548 5.402-3.3055 2.3055 63.04 6.0067-3.9668-0.2259 63.701 5.289-4.5714s-5.1444 79.298 10.126 114.4c3.0543 7.0218 6.9346 16.059 15.359 17.083s17.89-13.387 23.179-22.864c47.533-85.171 55.932-188.12 65.515-285.18 8.7894-89.027-7.7807-268.27-7.7807-268.27z" opacity=".5"/>
  <path d="m665.24 953.6c2.9718-8.4027 8.6055-18.177 17.223-20.452 9.9889-2.6369 18.804 9.5519 29.064 10.764 8.9722 1.0604 18.925-7.4534 26.911-3.2293 9.6467 5.1022 13.893 18.215 15.07 29.064 1.6436 15.143-11.841 44.134-11.841 44.134l-75.351-6.4587s-7.0597-36.905-1.0764-53.822z" fill="url(#h)" opacity=".5"/>
  <path d="m678.79 473.14s-16.529-14.138-26.741-15.472c-11.629-1.5185-25.17 1.4421-33.957 9.2092-36.261 32.052-54.917 134.4-54.917 134.4l5.4019-3.8538-16.963 84.784 5.402-3.9102-5.402 77.132 5.4585-3.9102-5.4585 92.548 5.402-3.3055 2.3055 63.04 6.0067-3.9668-0.2259 63.701 5.289-4.5714s-3.3223 78.561 10.126 114.4c3.0543 8.1405 6.9346 20.059 15.359 21.083s17.835-16.313 23.179-26.864c44.074-87.011 55.432-188.17 65.515-285.18 10.659-102.55-5.7807-309.27-5.7807-309.27z" fill="url(#aa)"/>
  <path d="m861.32 1019.6s-11.185 0.4303-15.204 4.2087c-2.21 2.0774-2.8019 5.7569-3.5684 8.8978-0.5285 2.1657-0.75166 4.4534-0.67149 6.699 0.19087 5.3462-0.83741 12.258 2.7303 15.749 2.7281 2.6693 10.788 0.5562 10.788 0.5562z" fill="url(#z)" stroke="#000" stroke-width=".69001"/>
  <path d="m837.27 1046.6s-1.8458-22.846 3.8058-31.969c4.6325-7.4777 13.483-12.568 22.074-14.462 8.5148-1.8772 17.723 0.7245 25.879 3.8058 5.6616 2.1388 9.7206 7.3751 15.223 9.8951 7.4463 3.4102 18.847 0.1776 23.596 6.8504 5.7448 8.0725 0.0163 19.897-1.5223 29.685-1.835 11.673-9.1339 34.252-9.1339 34.252z" fill="url(#g)" opacity=".5"/>
  <path d="m407.98 910.78s211.29 43.721 313.6 77.25c157.75 51.702 460.27 190.21 460.27 190.21l-3.1975 59.109s-316.51-138.46-481.43-188.43c-95.447-28.921-292.28-63.937-292.28-63.937z" fill="url(#y)"/>
  <path d="m407.98 910.78s211.29 43.721 313.6 77.25c157.75 51.702 460.27 190.21 460.27 190.21l-3.1975 59.109s-316.51-138.46-481.43-188.43c-95.447-28.921-292.28-63.937-292.28-63.937z" fill="url(#x)"/>
  <path d="m760.68 664.43s41.137 13.974 62.281 12.656c28.555-1.7793 81.339-27.402 81.339-27.402s-24.61 40.174-33.92 61.727c-32.508 75.26-75.732 233.99-75.732 233.99s-2.9247-141.7-14.81-211.29c-4.0552-23.745-19.158-69.681-19.158-69.681z" fill="url(#w)" opacity=".43"/>
  <path d="m685.04247,950.84375c-.5926.0144-1.1649.0394-1.75.0937-.5721.0532-1.1397.13713-1.7187.21875l-.1875.0312h-.0312c-.6427.0941-1.264.21126-1.9063.34375-1.2855.26522-2.5769.5929-3.8125,1.03125-1.8516.65706-3.6,1.53649-5.1562,2.65625-.5191.37332-1.0303.75632-1.5,1.1875-.006.005.006.0262 0,.0312-3.5551,3.26351-5.2343,8.32739-6.3126,13.03125-.3769,1.64456-.5459,3.3087-.625,5-.002.0514.002.1048 0,.15625-.0366.86668-.052,1.72228-.0312,2.59375 .002.11456-.002.22915 0,.34375 .0781,2.49077.3354,4.98935.6562,7.4375 .2474,1.88734-.0833,4.47532 1.0938,5.8125 .006.006-.006.0248 0,.0312 .1652.18433.3638.33832.5938.46875h.0312c.1015.0576.2065.0871.3125.0937 .1166.003.254-.0222.375-.0625s.2196-.0887.3437-.15625c.1628-.0886.3344-.17825.5-.28125l.0313-.0312c.1131-.0714.2304-.12457.3437-.1875s.2339-.11367.3438-.15625 .2079-.0823.3125-.0937h.0313c.1106-.01.2031-.006.3124.0312 .2491.0838.5046.20693.7188.34375l.0625.0312c.1922.12836.363.27381.5313.4375l.125.125c.3175.33402.5902.73676.8437,1.15625 .2859.47415.5353.99203.7813,1.5s.4686,1.00662.7187,1.46875c.0933.17229.2069.35039.2813.53125 .003.008-.003.0228 0,.0312 .2311.56886.3712,1.14994.5312,1.75s.3346,1.19685.5938,1.75005c.0864.184.1711.3583.2812.5312 .005.01-.005.024 0,.031 .1374.2157.2963.438.4375.6563 .3763.5827.7785,1.1698 1.1875,1.75 .2664.3761.5289.7612.8125,1.125l-9.75,26.1875c0,0 14.7187-8.9177 19.4375-15.8125 1.0515-1.5364 1.9892-3.6913 2.8125-6 1.0666-.2764 2.1073-.6204 3.0937-1 5.0315-1.9358 10.9548-4.5516 13.0938-9.5 .7211-1.66815-.8362-3.67034-1-5.46875-.0243-.27808-.0237-.54484.0312-.8125 .027-.13313.0733-.24515.125-.375 .004-.009-.004-.0226 0-.0312 .1817-.4553.5091-.79828.9063-1.09375 .2028-.14946.4253-.27744.6563-.40625 1.1547-.64405 2.5627-1.10997 3.0624-2.25 .7187-1.63915-.3297-3.59146-.5624-5.40625l.0624.0625c-.1095-.56108-.0824-1.13687.125-1.65625 .1845-.46247.5007-.79483.9063-1.09375l-.2187-.15625c.8907-.88272 2.2087-1.52318 2.625-2.6875 1.1802-3.30144 1.0533-7.34341-.4063-10.53125-2.4762-5.40862-7.7169-9.51492-13.0313-12.1875-3.6741-1.84772-7.9765-2.72566-12.125-2.625zm40.3438,6.28125c-.5848.003-1.1933.0209-1.7812.0625l-.2813.0312-.375.0312c-.3075.0298-.601.0839-.9063.125-.493.0659-.9858.12223-1.4687.21875l-.0937.0312c-.4666.0955-.9238.21821-1.375.34375l-.1563.0312-.0937.0312c-.3533.1035-.6911.22069-1.0313.34375l-.0937.0312-.4376.15625c-.3736.15019-.7418.32381-1.0937.5-.0122.006-.0191.0251-.0313.0312-.8491.42851-1.6277.91024-2.3124,1.5-.0504.0434-.107.0807-.1563.125-.1096.0984-.2082.20956-.3125.3125l-.2188.21875c-.1171.12392-.2343.24478-.3437.375-.005.006.005.0255 0,.0312-.173.20817-.3427.40527-.4687.625-.004.007.004.0241 0,.0312-.1237.219-.2302.4582-.3126.6875-.0855.238-.1723.47087-.2187.71875s-.0496.49348-.0625.75c-.0006.0101.0005.0211 0,.0312-.0112.24657-.0146.49663 0,.75 .002.0313-.002.0623 0,.0937 .1601,2.35194 1.3028,4.96256 1.4688,7.40625 .0007.0101-.0007.0212 0,.0312 .0171.26469.008.55242 0,.8125-.009.27008-.0212.51734-.0626.78125s-.1236.52617-.1874.78125c-.0283.11274-.0304.23171-.0626.34375-.0275.0961-.0635.18564-.0937.28125-.003.009.003.0219 0,.0312s-.0272.0186-.0313.0312c-.0805.25106-.155.50154-.25.75-.0719.18773-.1407.37587-.2187.5625-.1256.30192-.2713.60606-.4063.90625-.0457.1017-.0788.21089-.125.3125-.0287.0632-.0649.12431-.0937.1875s-.0645.12356-.0937.1875c-.004.009.004.0226 0,.0312-.0481.10501-.1086.20744-.1563.3125-.1141.25126-.235.49797-.3437.75-.1556.36064-.304.72932-.4376,1.09375-.2671.72885-.466,1.46014-.5624,2.21875-.0281.22024-.0392.43535-.0313.65625 .008.21094.0322.44498.0625.65625 .0968.6737.2849,1.3287.4062,2 .0399.22045.0739.43668.0938.65625 .007.073-.004.14585 0,.21875 .007.14646.008.2917 0,.4375-.005.22469-.0394.4353-.0938.65625-.181.73391-.5446,1.41143-1,2.0625l-.0937.125c-.5001.68995-1.071,1.3698-1.6563,2.03125l-.25.28125c-.206.2353-.4312.44917-.625.6875-.005.006.005.0253 0,.0312-.5375.66335-1.0186,1.33272-1.3124,2.0625-.003.009.003.0227 0,.0312-.0695.17537-.14.34979-.1876.53125-.002.01.003.0217 0,.0312-.0462.18156-.0724.37397-.0937.5625-.1077.9519-.1099,1.9488 0,2.9375 .1639,1.482.568,2.9847 1.2187,4.3437 .2143.4447.4526.8675.7188,1.2813 .005.01-.005.024 0,.031 .4035.6243.8845,1.2211 1.4062,1.75 .1759.1782.342.3348.5313.5 .006.01.0254-.01.0313,0 .2673.2326.5586.495.8437.7187 .0594.047.1273.079.1875.125 .3304.2537.6489.5095 1,.75l.2812.1875c.2244.1493.4559.294.6876.4375 .0638.039.1231.086.1874.125l-10.8124,26.9387c0,0 14.9259-8.5668 19.8124-15.3438 1.3719-1.9026 2.567-4.7634 3.5938-7.7187 .9426.037 1.8903.026 2.8125-.062 .9427-.091 1.8802-.2658 2.7813-.5 3.6232-.9419 5.8382-4.5702 7.5312-7.5938 1.2662-2.2612 1.3952-4.8303 1.6875-7.375l.0313.031c.083-.72608.1777-1.44636.3124-2.1562 .0636-.32404.1031-.65011.1876-.96875 .008-.0313.0227-.0625.0312-.0937 .0935-.34861.2154-.69045.3438-1.03125 .0428-.11412.0778-.23075.125-.34375 .7464-1.78847 2.8198-3.12146 3.1562-5 .0637-.35577.0737-.70772.0312-1.0625-.0212-.17739-.0521-.35413-.0937-.53125-.3546-1.50797-1.3732-3.01735-1.8125-4.5l-.0625-.21875c-.0912-.3556-.1555-.70833-.1563-1.0625 .0006-.11236.0191-.23159.0313-.34375 .003-.0304-.004-.0634 0-.0937 .0204-.14773.0505-.29012.0937-.4375 .015-.0526.0444-.10379.0626-.15625 .003-.009-.003-.0223 0-.0312 .0419-.11777.0821-.21318.1562-.3125 .1701-.22271.4175-.42656.6875-.59375l.0625-.0312c.3487-.21005.7244-.40703 1.0625-.625l.0625-.0312h.0312c.3071-.2078.5854-.44201.7188-.75 1.5109-3.48799.9981-7.85409-.9688-11.09375-2.7847-4.58678-8.1771-8.48022-13.9374-9.46875-1.4432-.24766-2.9926-.38338-4.5938-.375zm137.5938,57.0625c-.2095,0-.4158.023-.625.031h-.0313c-.9425.039-1.863.1078-2.7813.25l-.7187.125c-.952.1794-1.8734.4417-2.75.75-.2701.095-.552.1729-.8125.2812-.1157.048-.2301.1056-.3438.1562l-.1562.063c-.2641.1214-.5297.27-.7812.4062-.255.1381-.5094.284-.75.4375-.0756.048-.1447.1064-.2188.1563-.2713.1824-.5314.3588-.7812.5624l-.1876.1563c-.0502.043-.1069.081-.1562.125-.2063.1842-.4055.393-.5938.5937-.2038.2174-.3798.4229-.5312.6563-.004.01.004.025 0,.031-.2945.4599-.4997.9563-.625,1.4687-.5733,2.3438.3874,5.159.7812,7.875 .005.031-.004.063 0,.094 .038.2707.0698.5448.0938.8126 .0357.3996.0698.7983.0625,1.1874-.008.4889-.0568.971-.1563,1.4376-.0733.3438-.1701.6639-.2812,1-.0178.054-.0439.1025-.0625.1562-.0979.2822-.1951.566-.3125.8438-.0434.1025-.0795.2104-.125.3124l-.1562.3438c-.0338.072-.0593.147-.0938.2188-.1766.3676-.3732.729-.5625,1.0937-.8767,1.686-1.8246,3.3453-2.1563,5.1563-.002.01.002.021 0,.031-.0795.4548-.0739.9115-.0312,1.375 .0009.01-.001.021 0,.031 .0805.8406.2782,1.6965.3438,2.5313 .0235.2878.0141.5643 0,.8437-.004.05.005.1061 0,.1563-.0204.2254-.0563.4628-.125.6875-.0928.3037-.2279.5906-.375.875-.0498.096-.1014.1874-.1563.2812-.1079.1849-.218.3529-.3437.5313-.005.01.005.024 0,.031-.107.1508-.2578.2903-.375.4374-.5852.7345-1.2511,1.4309-1.9376,2.125-.2454.248-.4827.4995-.7187.75-.0804.086-.1717.1638-.25.25-.005.01.005.026 0,.031l-.0625.062c-.015.017-.0476.014-.0625.031-.2508.2809-.4715.5833-.6875.875-.5415.7325-.9475,1.5092-1.0938,2.375-.4666,2.7628-.0675,5.8599 1.2188,8.5 .2336.4797.4883.9309.7812,1.375s.6159.8822.9688,1.2813c.1764.1995.3398.3761.5312.5625 .005.01.026-.01.0313,0 .1531.1487.3092.323.4687.4688 .3089.2833.6379.5402.9688.8124l.0625.063c.0743.06.1434.1277.2187.1874 .4411.3518.9008.7016 1.375,1.0313l.1876.125c.3253.2222.6611.4454 1,.6563l-10.3126,20.125c0,0 13.4721-6.176 18.1876-11.5938 .9973-1.146 1.9498-2.7534 2.8437-4.5312 1.4689.2255 2.9273.3409 4.375.2812 .5032-.021 1.0045-.066 1.5-.125s.9835-.1518 1.4687-.25c.9757-.1974 1.8656-.5533 2.6876-1.0625 .2054-.1273.4282-.2638.625-.4063 .5902-.4273 1.1384-.9363 1.6562-1.4687 .0889-.091.1631-.1875.25-.2813 .0572.5431.1316,1.0885.25,1.625 .0144.064.0473.1234.0625.1876 .3023,1.286.7767,2.5183 1.4375,3.6562l.0312.062c.0626.1062.1219.2084.1876.3125 .1866.2964.3813.5968.5937.875l.125.1562c.2891.3651.6025.7051.9375,1.0313 1.2175,1.1855 2.6301,2.3038 4.1875,3.2813l-7.9063,18.375c0,0 13.6388-6.779 18.0938-12.4376 .4052-.5147.7802-1.1466 1.1562-1.8124 2.3148.3047 4.6137.2886 6.8126-.1563 1.9512-.3948 3.5879-1.5178 4.9687-2.9375 .3452-.3549.6523-.7407.9687-1.125 .9493-1.1529 1.7912-2.3953 2.5313-3.5625 .2976-.4694.5381-.9701.75-1.4687 .1059-.2494.2238-.4948.3125-.75 .7543-2.1707.9357-4.5336 1.4062-6.8126 .1334-.6469.2737-1.2814.4688-1.9062 .077-.2412.1904-.482.2812-.7188 .0149-.039.016-.086.0313-.125 .1004-.2536.1929-.5025.3125-.75 .099-.2047.2157-.4011.3438-.5937 1.0344-1.5525 2.8979-2.7752 3.3124-4.5313 .7067-2.993-2.7648-6.1639-1.5624-9.0312 .0539-.1286.1282-.2697.2187-.375l.0313.031c.1091-.1299.2263-.2387.375-.3437 .0873-.061.1847-.1323.2812-.1875l.0625-.031c.114-.063.2232-.1283.3437-.1876 .0704-.035.1476-.059.2188-.094 .0764-.037.1427-.088.2188-.125 .2625-.1294.5252-.2517.75-.4063l.0624-.031c.1062-.077.1943-.1609.2813-.25l.0313-.031c.0942-.1015.1573-.221.2187-.3438 .1152-.2306.2204-.4488.3125-.6875 1.4526-3.5059 1.1256-7.8236-.6562-11.1563-2.6909-5.033-8.1901-9.459-14.25-10.8437-1.9811-.4526-4.2302-.6984-6.4688-.6875h-.2188c-.5232.01-1.0414.026-1.5624.062l-.5.031c-.4257.038-.8307.096-1.25.1562-.4524.065-.9027.1585-1.3438.25-.0299.01-.0639-.01-.0938,0l-.5312.125c-.5686.1367-1.1182.2832-1.6562.4688-.3811.1313-.7632.2804-1.125.4374-.3757.1631-.7424.3708-1.0938.5626-.0292.016-.0647.015-.0938.031-.2559-.8717-.5797-1.7139-1-2.5-2.6909-5.033-8.19-9.4903-14.25-10.875-1.3978-.3194-2.9403-.5262-4.5-.625h-.1562c-.0728,0-.1458-.028-.2188-.031h-.0937c-.6075-.028-1.2309-.043-1.8437-.031zm18.9374,25.0625c.0618.3363.1392.666.1876,1 .0807.5526.1397,1.0867.1562,1.625 .002.053-.0007.104 0,.1562 .0002.01-.0001.021 0,.031 .0004.042.0001.083 0,.125-.001.1866-.0189.3789-.0312.5625-.003.051.004.1052 0,.1562-.0209.2405-.0498.4848-.0938.7188-.004.022-.0268.041-.0312.062-.002.01.002.022 0,.031s.002.021 0,.031 .002.021 0,.031c-.0182.084-.042.1671-.0626.25-.0364.1491-.0813.2902-.125.4376-.3913-.9568-.7581-1.9144-.8437-2.8438-.002-.02.002-.042 0-.062-.0103-.1312-.0334-.2447-.0313-.375 .0005-.022-.0007-.041 0-.062 .003-.074.0243-.1452.0313-.2188s.0188-.1457.0313-.2187c.006-.041.0231-.084.0312-.125 .0102-.052.0184-.1043.0312-.1563 .007-.028-.008-.066 0-.094 .004-.013.0276-.019.0313-.031 .0346-.1161.0763-.2275.125-.3437 .058-.1382.119-.2627.2187-.375l.0313-.031c.097-.1037.2204-.1938.3437-.2812zm-3.375,16.6562c.0301.1862.0702.3771.0938.5626 .0227.1821.0202.3502.0312.5312 .0155.2611.0189.5215 0,.7812-.002.021.002.042 0,.063-.0009.01.001.021 0,.031-.0215.2289-.057.4645-.125.6875-.0827.2707-.1858.5266-.3124.7813l-.0626.125c-.0282.053-.0638.1033-.0937.1562-.0186.033-.0433.061-.0625.094-.1115.1898-.2447.3795-.375.5624 .1667-1.0214.3078-2.0259.5312-3.0312 .002-.01-.002-.021 0-.031 .063-.2813.1438-.5664.2188-.8438l.0625-.2188c.009-.031.0222-.063.0313-.094 .0154-.053.0465-.1035.0624-.1563z" opacity=".5"/>
  <g transform="matrix(.78108 0 0 .78108 147.23 225.05)">
   <path d="m701.24 994.21c6.4416-2.4784 14.007-5.8432 16.746-12.179 1.1362-2.6286-2.1405-5.863-1.0795-8.5228 0.9447-2.3684 4.8966-2.5087 5.9204-4.844 1.2267-2.7981-1.5396-6.2633-0.5382-9.1497 0.7081-2.041 3.5786-2.8097 4.3058-4.844 1.511-4.2268 1.3304-9.3742-0.5382-13.456-3.1703-6.9246-9.881-12.187-16.685-15.608-5.3759-2.7036-11.77-3.7862-17.761-3.2293-6.5025 0.60434-13.489 2.5806-18.3 6.9969-4.5515 4.1782-6.6929 10.663-8.0733 16.685-1.4831 6.4702-0.8625 13.332 0 19.914 0.3619 2.7615-0.2697 6.6992 2.1529 8.0733 1.1361 0.64437 2.5296-1.4929 3.7675-1.0764 2.5507 0.85801 3.5629 4.092 4.844 6.4586 0.9996 1.8467 1.0249 4.1492 2.1529 5.9204 2.5896 4.0661 5.6812 8.6195 10.226 10.226 4.0642 1.4367 8.8365 0.18227 12.86-1.3657z" fill="#808080"/>
   <path d="m693.88 922.25c-0.75874 0.0184-1.501 0.0554-2.25 0.125-6.5025 0.60434-13.502 2.5837-18.312 7-4.5515 4.1782-6.6821 10.665-8.0625 16.688-1.4831 6.4702-0.8625 13.324 0 19.906 0.3619 2.7615-0.26635 6.7197 2.1562 8.0938 1.1361 0.64437 2.5121-1.5102 3.75-1.0938 2.5507 0.85801 3.5626 4.1021 4.8438 6.4688 0.9996 1.8467 1.0282 4.135 2.1562 5.9062 1.95 3.0618 4.1683 6.4143 7.0938 8.5625 5.5688-3.4524 10.053-9.5474 10.531-15.562 0.3177-3.999-7.4244-5.9368-6.8438-9.9062 0.4703-3.215 6.455-3.0506 7.5938-6.0938 0.9942-2.6567-2.4666-5.697-1.5312-8.375 0.8894-2.5462 5.387-2.7097 6.0938-5.3125 1.0511-3.8715-4.0116-7.4325-3.7812-11.438 0.2411-4.1929 7.5685-7.8638 5.3125-11.406-0.80501-1.264-1.8336-2.339-3.0625-3.2188-1.8917-0.27135-3.7965-0.38963-5.6875-0.34375z" fill="url(#v)"/>
   <path d="m719.82 981.17c0.46053-4.071 5.7277-6.7936 6.7154-10.798 0.54784-2.2213-0.86565-4.5104-0.5789-6.7662 0.49381-3.885 3.2996-7.3653 3.9066-11.239 0.84694-5.406-4.13-11.926-0.43755-16.32 4.5777-5.4484 14.596-6.5572 21.986-5.289 7.3749 1.2656 14.277 6.2325 17.842 12.105 2.5182 4.1477 3.1502 9.7434 1.2157 14.209-0.58987 1.3616-3.065 1.641-3.5604 3.0309-1.2566 3.5254 3.1022 7.1316 2.4498 10.775-0.43064 2.4051-3.0804 4.1098-4.0362 6.3996-2.0392 4.8856-0.85525 10.622-3.4702 15.291-2.1675 3.871-5.0292 8.5217-9.668 9.7276-9.2286 2.3989-20.581-1.3298-27.357-7.2413-3.878-3.3834-5.5592-9.0098-5.0076-13.885z" fill="#808080"/>
   <path d="m743.25 930.38c-5.4308 0.38387-10.797 2.0985-13.812 5.6875-3.6924 4.3947 1.2844 10.906 0.4375 16.312-0.60695 3.8741-3.4124 7.3338-3.9062 11.219-0.28675 2.2558 1.1103 4.56 0.5625 6.7812-0.98772 4.0045-6.2582 6.7414-6.7188 10.812-0.55154 4.8748 1.122 10.492 5 13.875 1.3967 1.2185 2.9918 2.3452 4.7188 3.3438 1.4936-0.0936 2.9574-0.31899 4.375-0.6875 4.6388-1.2059 7.52-5.8478 9.6875-9.7188 2.6149-4.6699 1.4295-10.396 3.4688-15.281 0.95579-2.2898 3.6006-4.0012 4.0312-6.4062 0.65245-3.6439-3.7253-7.2559-2.4688-10.781 0.49541-1.3899 2.9726-1.6696 3.5625-3.0312 1.9345-4.4656 1.3308-10.04-1.1875-14.188-1.8289-3.0123-4.5517-5.7791-7.75-7.9375z" fill="url(#u)"/>
   <path d="m701.24 994.21c6.4416-2.4784 14.007-5.8432 16.746-12.179 1.1362-2.6286-2.1405-5.863-1.0795-8.5228 0.9447-2.3684 4.8966-2.5087 5.9204-4.844 1.2267-2.7981-1.5396-6.2633-0.5382-9.1497 0.7081-2.041 3.5786-2.8097 4.3058-4.844 1.511-4.2268 1.3304-9.3742-0.5382-13.456-3.1703-6.9246-9.881-12.187-16.685-15.608-5.3759-2.7036-11.77-3.7862-17.761-3.2293-6.5025 0.60434-13.489 2.5806-18.3 6.9969-4.5515 4.1782-6.6929 10.663-8.0733 16.685-1.4831 6.4702-0.8625 13.332 0 19.914 0.3619 2.7615-0.2697 6.6992 2.1529 8.0733 1.1361 0.64437 2.5296-1.4929 3.7675-1.0764 2.5507 0.85801 3.5629 4.092 4.844 6.4586 0.9996 1.8467 1.0249 4.1492 2.1529 5.9204 2.5896 4.0661 5.6812 8.6195 10.226 10.226 4.0642 1.4367 8.8365 0.18227 12.86-1.3657z" fill="none" stroke="#000" stroke-width="1.9"/>
   <path d="m686.28 976.52-17.507 46.908s18.838-11.44 24.879-20.268c4.9706-7.2627 8.1339-25.118 8.1339-25.118s-3.5215-5.4192-6.3727-5.8504c-3.3313-0.5038-9.1339 4.3281-9.1339 4.3281z" fill="#999"/>
   <path d="m719.82 981.17c0.46053-4.071 5.7277-6.7936 6.7154-10.798 0.54784-2.2213-0.86565-4.5104-0.5789-6.7662 0.49381-3.885 3.2996-7.3653 3.9066-11.239 0.84694-5.406-4.13-11.926-0.43755-16.32 4.5777-5.4484 14.596-6.5572 21.986-5.289 7.3749 1.2656 14.277 6.2325 17.842 12.105 2.5182 4.1477 3.1502 9.7434 1.2157 14.209-0.58987 1.3616-3.065 1.641-3.5604 3.0309-1.2566 3.5254 3.1022 7.1316 2.4498 10.775-0.43064 2.4051-3.0804 4.1098-4.0362 6.3996-2.0392 4.8856-0.85525 10.622-3.4702 15.291-2.1675 3.871-5.0292 8.5217-9.668 9.7276-9.2286 2.3989-20.581-1.3298-27.357-7.2413-3.878-3.3834-5.5592-9.0098-5.0076-13.885z" fill="none" stroke="#000" stroke-width="1.9"/>
   <path d="m733.71 986.08-18.652 46.465s19.113-10.975 25.369-19.651c5.1472-7.1386 8.7476-24.911 8.7476-24.911s-3.3876-5.5039-6.2273-6.0049c-3.318-0.5854-9.2373 4.1027-9.2373 4.1027z" fill="#999"/>
   <path d="m698.34 964.91s7.056 2.299 10.219 4.1875c2.4742 1.4774 5.8819 4.3985 8.2188 6.5-0.14023-0.71834-0.14025-1.4288 0.125-2.0938 0.23618-0.5921 0.66816-1.0236 1.1875-1.4062-2.7136-1.9097-6.345-4.2897-9-5.3125-3.3991-1.3095-10.75-1.875-10.75-1.875z"/>
   <path d="m703.77 951.14s7.056 2.299 10.219 4.1875c2.4742 1.4774 5.8819 4.3985 8.2188 6.5-0.14023-0.71834-0.14025-1.4288 0.125-2.0938 0.23618-0.5921 0.66816-1.0236 1.1875-1.4062-2.7136-1.9097-6.345-4.2897-9-5.3125-3.3991-1.3095-10.75-1.875-10.75-1.875z"/>
   <path d="m682.47 948.03c-3.4971 0.0633-7.2204 0.44542-10.938 1.3125-2.0293 0.47337-4.825 1.8719-7.0938 3.1562-0.11205 2.4228-0.0696 4.8765 0.125 7.3125 1.919-1.4748 6.0971-4.5475 8.8438-5.5938 15.112-5.7563 28-3.8125 28-3.8125s-8.4461-2.5648-18.938-2.375zm13.625 17.031s-10.868 0.5601-16 2.1562c-3.938 1.2247-11.031 5.5938-11.031 5.5938l0.375 0.6875c0.58523-0.36273 1.159-0.71956 1.7188-0.53125 1.4244 0.47916 2.3766 1.6975 3.1562 3.0938 1.771-1.8784 4.2124-4.2957 6.125-5.4688 4.714-2.8912 15.656-5.5312 15.656-5.5312z"/>
   <path d="m740.84 952.43c-2.8788 0.6566-10.663-3.6093-10.969-0.0591-0.37934 2.4213-1.6291 4.6914-2.625 7 4.2188-1.9528 15.489-6.7973 22.219-5.9062 6.0276 0.7981 14.642 7.6916 17.688 10.25-0.4503-1.2115-0.6758-2.4304-0.25-3.625 0.35242-0.98875 1.6915-1.4083 2.6562-2.0625-0.74274-0.35876-2.4294 0.43325-3.4038-0.0195-4.6048-2.1398-11.468-5.1692-15.944-6.029-2.7513-0.52848-5.6459 0.41015-9.3706 0.45144z"/>
   <path d="m726.62 968.97c0.0231 0.46787 0.0204 0.94335-0.0937 1.4062-0.70631 2.8636-3.5833 5.0794-5.3438 7.5938 6.3937-2.9594 16.934-7.1346 23.75-6.1562 6.0966 0.87504 14.301 7.2295 19.094 11.344 0.21243-1.8593 0.46781-3.6922 1.125-5.4375-5.6368-2.8337-13.872-6.7486-19.281-7.875-3.3699-0.70169-6.9377 0.53892-11.5 0.59375-1.738 0.42971-4.909-0.74809-7.75-1.4688z"/>
   <path d="m695.01 971.16c-0.74238 0.0254-1.5419 0.23823-2.3763 0.56107l-13.862 37.064c0.7355-0.5152 0.67647-0.3938 1.4522-0.9571 5.6426-4.0968 12.065-9.5027 14.687-13.334 2.0549-3.0025 4.2938-9.528 5.7427-15.05 0.33431-1.2741 0.58873-2.3958 0.8251-3.3994-1.2956-1.7186-3.6937-4.5368-5.7757-4.8516-0.2199-0.0333-0.45494-0.0412-0.69309-0.033z" fill="url(#t)"/>
   <path d="m742.04 981.84c-0.70292 0.024-1.4599 0.22557-2.25 0.53125l-13.125 35.094c0.69641-0.4878 0.64052-0.3729 1.375-0.9062 5.3426-3.8791 11.424-8.9976 13.906-12.625 1.9457-2.843 4.0656-9.0216 5.4375-14.25 0.31654-1.2064 0.55744-2.2684 0.78125-3.2188-1.2267-1.6273-3.4974-4.2956-5.4688-4.5938-0.20821-0.0315-0.43076-0.039-0.65625-0.0312z" fill="url(#s)"/>
  </g>
  <path d="m845.44 1049.8c0.56684-3.356 5.0595-5.3752 6.0606-8.6521 0.55528-1.8176-0.51327-3.7807-0.173-5.6388 0.58599-3.2 3.0714-5.9596 3.7508-9.1456 0.94796-4.4458-2.8843-10.08 0.37801-13.557 4.0445-4.3115 12.405-4.7765 18.478-3.389 6.06 1.3847 11.56 5.818 14.251 10.851 1.9006 3.5548 2.1707 8.2251 0.36331 11.841-0.55112 1.1028-2.6169 1.222-3.0909 2.3525-1.2024 2.8672 2.2495 6.0564 1.5429 9.0494-0.46641 1.9754-2.7417 3.2692-3.6385 5.1252-1.9133 3.9599-1.1917 8.7717-3.5727 12.527-1.9737 3.1125-4.5586 6.8403-8.4611 7.63-7.764 1.5709-17.012-2.0375-22.364-7.2488-3.0632-2.9824-4.2022-7.7258-3.5234-11.744z" fill="#808080"/>
  <path d="m869.06 1008.8c-5.1029-0.2523-10.579 0.8311-13.612 4.0648-3.2624 3.4778 0.57025 9.1052-0.37772 13.551-0.67934 3.1859-3.165 5.9543-3.751 9.1544-0.34027 1.8582 0.74134 3.8083 0.18606 5.626-1.0011 3.277-5.4972 5.3079-6.0641 8.6639-0.67881 4.0185 0.45432 8.7537 3.5175 11.736 0.98225 0.9563 2.1 1.8508 3.3114 2.6772 2.0424 0.1989 4.0781 0.1501 6.0191-0.2426 3.9026-0.7896 6.4788-4.5365 8.4525-7.6492 2.3811-3.7549 1.6578-8.5582 3.5711-12.518 0.89677-1.8559 3.1942-3.154 3.6607-5.1295 0.70663-2.9929-2.7607-6.1878-1.5583-9.0551 0.47404-1.1304 2.5416-1.2498 3.0927-2.3526 1.8074-3.6163 1.5338-8.269-0.36681-11.824-1.3181-2.4654-3.2903-4.7916-5.6921-6.6814l-0.38882-0.021z" fill="url(#r)"/>
  <path d="m845.44 1049.8c0.56684-3.356 5.0595-5.3752 6.0606-8.6521 0.55528-1.8176-0.51327-3.7807-0.173-5.6388 0.58599-3.2 3.0714-5.9596 3.7508-9.1456 0.94796-4.4458-2.8843-10.08 0.37801-13.557 4.0445-4.3115 12.405-4.7765 18.478-3.389 6.06 1.3847 11.56 5.818 14.251 10.851 1.9006 3.5548 2.1707 8.2251 0.36331 11.841-0.55112 1.1028-2.6169 1.222-3.0909 2.3525-1.2024 2.8672 2.2495 6.0564 1.5429 9.0494-0.46641 1.9754-2.7417 3.2692-3.6385 5.1252-1.9133 3.9599-1.1917 8.7717-3.5727 12.527-1.9737 3.1125-4.5586 6.8403-8.4611 7.63-7.764 1.5709-17.012-2.0375-22.364-7.2488-3.0632-2.9824-4.2022-7.7258-3.5234-11.744z" fill="url(#q)" stroke="#000" stroke-width="1.5784"/>
  <path d="m858.28 1055.1-15.322 29.925s13.453-6.1664 18.169-11.584c3.8796-4.4578 7.377-16.121 7.377-16.121s-1.9276-3.8879-3.7957-4.3971c-2.1827-0.5949-6.4283 2.1769-6.4283 2.1769z" fill="#999"/>
  <path d="m855.15164,1023.4912c.10837.9933.11669,1.9604-.0798,2.8815-.29329,1.3754-.92681,2.6823-1.59518,3.9686 5.04162-1.9475 12.83022-4.4307 17.79014-3.4462 4.55192.9035 10.43938,5.9434 13.94849,9.2652-.0513-.5736.0157-1.123.24776-1.6764 .41959-1.0006 2.08142-1.229 2.84095-2.0285-.60164.063-1.23901.1086-1.68206-.1441-4.18793-2.3848-10.43622-5.763-14.57436-6.8556-2.5434-.6715-5.3007.1103-8.78564-.039-1.85093.3474-5.68371-1.6851-8.11037-1.9258zm-3.52649,15.9785c.0471.5756.0516,1.1278-.11808,1.6834-.74221,2.4294-3.41369,4.1756-4.97159,6.2797 4.28084-1.8232 14.65925-5.8438 20.74121-4.6365 4.94534.9814 11.51249,6.8598 14.8391,10.094 .2664-1.4622.59862-2.9069 1.24647-4.2478 .0391-.081.0983-.1473.14238-.2261-.32281,0-.62561-.062-.87283-.2037-4.18792-2.3848-10.46213-5.7644-14.60027-6.8571-2.5434-.6715-5.3007.1102-8.78564-.039-1.73981.3265-5.19482-1.4332-7.62069-1.8471z"/>
  <path d="m876.63 1061.7c0.56685-3.356 5.0595-5.3753 6.0606-8.6521 0.55528-1.8176-0.51326-3.7807-0.173-5.6388 0.58601-3.2001 3.0714-5.9597 3.7508-9.1456 0.94797-4.4458-2.8843-10.08 0.37802-13.557 4.0445-4.3115 12.405-4.7765 18.478-3.389 6.06 1.3847 11.56 5.818 14.251 10.851 1.9006 3.5548 2.1707 8.225 0.3633 11.841-0.55111 1.1028-2.6169 1.222-3.0909 2.3524-1.2024 2.8673 2.2495 6.0565 1.5429 9.0495-0.46641 1.9754-2.7417 3.2692-3.6385 5.1252-1.9133 3.9599-1.1917 8.7717-3.5728 12.527-1.9737 3.1125-4.5585 6.8403-8.4611 7.63-7.764 1.5708-17.012-2.0375-22.364-7.2488-3.0632-2.9824-4.2023-7.7258-3.5234-11.744z" fill="#808080"/>
  <path d="m898.66 1020.7c-4.6152 0.027-9.3067 1.174-12.027 4.0736-3.2623 3.4777 0.56885 9.131-0.37912 13.577-0.67935 3.186-3.1636 5.9284-3.7496 9.1285-0.34027 1.8582 0.73992 3.8342 0.18463 5.652-1.0011 3.2768-5.4958 5.2818-6.0626 8.638-0.60581 3.5862 0.24555 7.7504 2.6109 10.724 1.5246 0.046 3.0368-0.083 4.4926-0.378 3.9026-0.7897 6.5033-4.5092 8.477-7.6218 2.3811-3.7549 1.6578-8.5583 3.5711-12.518 0.89678-1.8559 3.1683-3.1554 3.6348-5.1309 0.70664-2.9929-2.7607-6.1878-1.5583-9.055 0.47405-1.1305 2.5416-1.2499 3.0927-2.3527 1.8074-3.6163 1.5338-8.2689-0.3668-11.824-0.5365-1.0035-1.1785-1.9767-1.9205-2.913z" fill="url(#p)"/>
  <path d="m876.63 1061.7c0.56685-3.356 5.0595-5.3753 6.0606-8.6521 0.55528-1.8176-0.51326-3.7807-0.173-5.6388 0.58601-3.2001 3.0714-5.9597 3.7508-9.1456 0.94797-4.4458-2.8843-10.08 0.37802-13.557 4.0445-4.3115 12.405-4.7765 18.478-3.389 6.06 1.3847 11.56 5.818 14.251 10.851 1.9006 3.5548 2.1707 8.225 0.3633 11.841-0.55111 1.1028-2.6169 1.222-3.0909 2.3524-1.2024 2.8673 2.2495 6.0565 1.5429 9.0495-0.46641 1.9754-2.7417 3.2692-3.6385 5.1252-1.9133 3.9599-1.1917 8.7717-3.5728 12.527-1.9737 3.1125-4.5585 6.8403-8.4611 7.63-7.764 1.5708-17.012-2.0375-22.364-7.2488-3.0632-2.9824-4.2023-7.7258-3.5234-11.744z" fill="none" stroke="#000" stroke-width="1.5784"/>
  <path d="m889.71 1064.3-13.265 30.796s13.623-6.7857 18.078-12.444c3.6653-4.6556 6.2184-16.552 6.2184-16.552s-2.4209-3.8337-4.4468-4.2667c-2.3671-0.5059-6.5852 2.4671-6.5852 2.4671z" fill="#999"/>
  <path d="m886.14867,1034.072c.2552,1.4566.38996,2.9106.10572,4.2437-.0791.3711-.17062.7151-.29288,1.076 5.34999-1.6376 11.72684-3.021 16.16106-2.1834 4.7069.889 10.64227,5.3633 14.75025,8.8671 .69877-.8317 2.37587-1.0445 2.86688-2.027 .14091-.2819.24343-.5706.35929-.8643-.0842-.028-.17955-.052-.25495-.092-4.83808-2.5852-12.05605-6.2273-16.83134-7.4211-2.935-.7337-6.11668.088-10.13497-.087-1.54092.2647-4.27201-.7923-6.72906-1.5123zm-3.32223,17.4717c.0314.5222.0173,1.0474-.13696,1.5525-.45503,1.4895-1.63963,2.713-2.84083,3.9264 5.63069-1.8322 12.86887-3.6424 17.75042-2.7204 5.13271.9693 11.75603,6.1967 15.84398,9.785 .24904-1.2079.56272-2.3862 1.10164-3.5015 .0989-.2047.21697-.4126.3451-.6052-4.83062-2.5698-11.77973-6.0552-16.42652-7.2169-2.93501-.7337-6.1167.088-10.13498-.087-1.29246.222-3.40989-.4751-5.50183-1.1332z"/>
  <path d="m864.28 1052.8c-1.0737-0.088-2.4879 0.4177-3.667 0.9692l-8.5032 19.502c0.52482-0.328 0.49355-0.2589 1.0478-0.6186 4.0318-2.6167 8.6409-6.1037 10.587-8.6503 1.2746-1.6677 2.7115-5.0119 3.8583-8.2646-0.73577-1.1471-1.8344-2.5698-2.9112-2.8633-0.1364-0.037-0.26095-0.061-0.4119-0.075z" fill="url(#o)"/>
  <path d="m895.82345,1061.8042c-.90208-.033-1.97787.329-2.98022.7729l-9.17631,22.2992c.51104-.3412.45765-.2735.9974-.6474 3.9262-2.7199 8.41934-6.3366 10.31909-8.977 1.4889-2.0693 3.24228-6.6565 4.4252-10.5475 .0292-.096.0383-.1631.066-.2564-.88264-1.084-2.08484-2.3307-3.18744-2.5663-.14797-.031-.30282-.072-.46381-.076z" fill="url(#n)"/>
  <path d="m641.19 460.66c-6.33 0.099-12.939 2.2986-17.531 6.75-23.325 22.609-35.344 94.812-35.344 94.812l3.4688-2.7188-10.906 59.812 3.4688-2.7812-3.2812 51.25c-8.6775 15.217-13.094 41.938-13.094 41.938l1.7812-1.375-5.625 30.781 1.8125-1.4375-1.8125 28 1.8125-1.4062-1.8125 33.594 1.8125-1.1875 0.75 22.875 2-1.4375-0.0937 23.125 1.75-1.6562s-1.0778 28.517 3.375 41.531c1.0113 2.9556 2.2733 7.2845 5.0625 7.6562s5.918-5.9192 7.6875-9.75c2.8083-6.0796 5.2011-12.337 7.2812-18.75 0.92292 12.886 2.613 25.86 5.7188 34.938 1.9647 5.7421 4.4562 14.153 9.875 14.875s11.469-11.526 14.906-18.969c6.9836-15.119 12.706-30.832 17.438-46.969v0.15625l1.75-1.6562s-1.109 28.517 3.3438 41.531c1.0113 2.9556 2.3045 7.2845 5.0938 7.6562s5.8868-5.9192 7.6562-9.75c14.593-31.591 18.349-68.339 21.688-103.56 3.5291-37.235-1.9063-112.28-1.9063-112.28s-5.4628-5.1409-8.8438-5.625c-0.74209-0.10626-1.5079-0.10916-2.2812-0.0937 2.6426-76.386 25.579-133.98-5.5-188.69-3.3542-5.9046-10.619-9.997-17.188-10.938-1.4026-0.20083-2.8517-0.27284-4.3125-0.25z" fill="url(#m)" opacity=".53846"/>
  <path d="m408.97 910.93c10.025 4.9626 10.509 20.273 11.917 31.37 0.81792 6.4467-0.0641 13.222-2.1529 19.376-2.8978 8.5366-5.0504 22.008-13.994 23.143-11.453 1.454-20.912-13.334-24.758-24.22-2.0462-5.791 0.62855-12.35 2.1529-18.299 2.3741-9.2665 3.6832-20.171 10.764-26.602 4.1362-3.7566 11.063-7.2464 16.07-4.7675z" fill="#d38d5f"/>
  <path d="m405.03 913.72c-2.809 0.0738-7.0862 2.2936-9.6875 4.6562-5.7364 5.21-7.2242 15.198-9.6875 24.812-1.6186 6.3177-3.6768 12.149-2.25 16.188 1.7828 5.0457 4.9875 11.172 8.8438 15.562s7.9556 6.7987 12.031 6.2812c2.7252-0.34597 4.5943-2.5788 6.4062-6.6875s3.0772-9.4716 4.625-14.031c1.9248-5.6704 2.7069-11.932 1.9688-17.75-0.72376-5.7045-1.2051-12.152-2.625-17.5s-3.6089-9.2291-7.3125-11.062c-0.67733-0.3353-1.4012-0.4927-2.3125-0.46875z" fill="#a05a2c"/>
  <path d="m405.12 916.81c-1.578 0.0415-5.5127 1.8685-7.6875 3.8438-4.5912 4.1699-6.242 13.37-8.7812 23.281-1.6989 6.6311-3.243 11.861-2.3438 14.406 1.6633 4.7076 4.7572 10.555 8.25 14.531s6.6741 5.5889 9.3438 5.25c1.2378-0.15714 2.3338-1.1366 3.9688-4.8438s2.868-8.9735 4.5-13.781c1.7851-5.259 2.4827-11.092 1.8125-16.375-0.74063-5.8375-1.22-12.155-2.5312-17.094s-3.0985-7.7808-5.6875-9.0625c-0.18801-0.0931-0.3641-0.16886-0.84375-0.15625z" fill="#d38d5f"/>
  <path d="m404.97 919.72c-0.70118 0.13629-3.9506 1.4821-5.6562 3.0312-3.5491 3.2234-5.3291 11.725-7.9375 21.906-1.772 6.9163-2.8255 11.563-2.4062 12.75 1.5546 4.3999 4.5566 10.025 7.7188 13.625s5.4847 4.489 6.875 4.3125c-0.11565 0.0147 0.24494 0.15437 1.7188-3.1875s2.7289-8.529 4.4375-13.562c1.658-4.8846 2.2959-10.329 1.6875-15.125-0.75599-5.9585-1.2563-12.152-2.4688-16.719-1.1526-4.3413-2.4873-6.1796-3.9688-7.0312z" fill="#a05a2c"/>
  <path d="m404.47 922.28c-0.86476 0.4081-2.535 1.135-3.625 2.125-2.72 2.4704-4.6491 10.417-7.3125 20.812-1.8301 7.1432-2.4749 11.332-2.4375 11.438 1.4681 4.1551 4.3822 9.6059 7.2812 12.906 2.1921 2.4955 3.409 3.0964 4.1562 3.3125 0.0964-0.2501 0.20403-0.45787 0.71875-1.625 1.3456-3.0512 2.5742-8.1619 4.3438-13.375 1.5569-4.5867 2.153-9.717 1.5938-14.125-0.7682-6.0548-1.3038-12.136-2.4375-16.406-0.83465-3.1436-1.596-4.3532-2.2812-5.0625z" fill="#d38d5f"/>
  <path d="m404.19 923.78c-0.84748 0.40583-1.9304 0.95714-2.5625 1.5312-2.2742 2.0655-4.2132 9.6762-6.9062 20.188-1.8614 7.2652-2.332 11.257-2.5 10.781 1.4216 4.0235 4.2736 9.3294 7.0312 12.469 1.2372 1.4084 2.0772 2.0369 2.7188 2.4688 0.10513-0.23459-2e-3 -0.0778 0.15625-0.4375 1.2767-2.8949 2.5102-8.0029 4.3125-13.312 1.5026-4.4265 2.0953-9.3629 1.5625-13.562-0.77477-6.1066-1.3148-12.139-2.4062-16.25-0.52433-1.9748-0.99545-3.1343-1.4062-3.875z" fill="#a05a2c"/>
  <path d="m402.84 929.53c-1.2144 2.4783-2.8681 7.7877-5.1562 16.719-1.9408 7.5753-1.9038 10.953-2.5938 9 1.1454 3.2419 3.4323 7.3375 5.5938 10.188 0.84701-2.6541 1.5825-5.1298 2.875-8.9375 1.3643-4.0193 1.8406-8.5177 1.375-12.188-0.72939-5.7489-1.2477-11.055-2.0938-14.781z" fill="#d38d5f"/>
  <path d="m402.31 934.62c-0.94538 2.877-2.0283 6.5592-3.4062 11.938-0.95876 3.7422-1.421 6.4071-1.75 8-0.0823 0.39822-0.16942 0.74187-0.25 1.0312-0.0273 0.098-0.0987 0.22116-0.125 0.3125 0.8812 2.1742 2.1337 4.4758 3.5312 6.625 0.60113-1.9196 1.13-3.6905 2.0625-6.4375 1.3011-3.833 1.7484-8.1891 1.3125-11.625-0.4917-3.8755-0.91952-6.7684-1.375-9.8438z" fill="#a05a2c"/>
  <path d="m408.97 910.93c10.025 4.9626 10.509 20.273 11.917 31.37 0.81792 6.4467-0.0641 13.222-2.1529 19.376-2.8978 8.5366-5.0504 22.008-13.994 23.143-11.453 1.454-20.912-13.334-24.758-24.22-2.0462-5.791 0.62855-12.35 2.1529-18.299 2.3741-9.2665 3.6832-20.171 10.764-26.602 4.1362-3.7566 11.063-7.2464 16.07-4.7675z" fill="url(#l)"/>
 </g>
</svg>
